<svg width="25" height="25" viewBox="0 0 25 25" fill="none" xmlns="http://www.w3.org/2000/svg">
<path d="M11.4486 17.2802C11.3174 17.2805 11.1873 17.2548 11.066 17.2047C10.9447 17.1546 10.8345 17.081 10.7416 16.9882L6.49963 12.7452C6.40406 12.653 6.3278 12.5427 6.27531 12.4208C6.22282 12.2988 6.19514 12.1676 6.19389 12.0348C6.19264 11.902 6.21785 11.7703 6.26805 11.6474C6.31824 11.5245 6.39242 11.4128 6.48624 11.3188C6.58007 11.2249 6.69166 11.1505 6.81452 11.1002C6.93738 11.0498 7.06904 11.0244 7.20182 11.0254C7.3346 11.0265 7.46584 11.054 7.58788 11.1063C7.70992 11.1586 7.82032 11.2347 7.91263 11.3302L11.4476 14.8652L17.8126 8.50219C18.0001 8.31455 18.2545 8.20908 18.5198 8.20898C18.7851 8.20889 19.0395 8.31418 19.2271 8.50169C19.4148 8.6892 19.5202 8.94356 19.5203 9.20883C19.5204 9.4741 19.4151 9.72855 19.2276 9.91619L12.1556 16.9882C12.0628 17.081 11.9526 17.1546 11.8313 17.2047C11.7099 17.2548 11.5799 17.2805 11.4486 17.2802Z" fill="#2FAB73"/>
</svg>
