<svg width="0" height="0" class="hidden">
  <symbol fill="none" xmlns="http://www.w3.org/2000/svg" viewBox="0 0 512 512" id="AU">
    <g clip-path="url(#clip0_2_4144)">
      <path d="M512 256C512 397.384 397.384 512 256 512C114.616 512 0 397.384 0 256C0 256.06 256 0.029 256 0C397.384 0 512 114.616 512 256Z" fill="#0052B4"></path>
      <path d="M256 0C255.986 0 255.971 0.001 255.957 0.001L256 0Z" fill="#F0F0F0"></path>
      <path d="M255.315 256H256C256 255.768 256 255.546 256 255.315C255.772 255.544 255.544 255.772 255.315 256Z" fill="#F0F0F0"></path>
      <path d="M256 133.566C256 88.521 256 59.004 256 0.000976562H255.957C114.592 0.0239766 0 114.629 0 256H133.565V180.788L208.777 256H255.316C255.545 255.772 255.773 255.544 256.001 255.315C256.001 238.068 256.001 222.679 256.001 208.779L180.788 133.566H256Z" fill="#F0F0F0"></path>
      <path d="M129.515 33.3911C89.4761 56.1901 56.1901 89.4761 33.3911 129.515V256H100.174V100.175V100.174H256C256 79.1111 256 59.0451 256 33.3911H129.515Z" fill="#D80027"></path>
      <path d="M256 224.519L165.047 133.567H133.566C133.566 133.566 133.566 133.567 133.566 133.567L255.999 256H256C256 256 256 234.295 256 224.519Z" fill="#D80027"></path>
      <path d="M154.395 300.522L168.445 329.9L200.172 322.567L185.964 351.869L211.478 372.102L179.711 379.262L179.8 411.826L154.395 391.453L128.991 411.826L129.08 379.262L97.312 372.102L122.827 351.869L108.617 322.567L140.346 329.9L154.395 300.522Z" fill="#F0F0F0"></path>
      <path d="M383.284 356.174L390.309 370.863L406.173 367.196L399.068 381.847L411.826 391.964L395.942 395.544L395.986 411.826L383.284 401.639L370.582 411.826L370.626 395.544L354.743 391.964L367.5 381.847L360.396 367.196L376.259 370.863L383.284 356.174Z" fill="#F0F0F0"></path>
      <path d="M317.933 200.348L324.957 215.038L340.821 211.37L333.717 226.021L346.474 236.138L330.591 239.718L330.634 256L317.933 245.813L305.231 256L305.274 239.718L289.391 236.138L302.148 226.021L295.044 211.37L310.908 215.038L317.933 200.348Z" fill="#F0F0F0"></path>
      <path d="M383.284 111.304L390.309 125.994L406.173 122.327L399.069 136.978L411.825 147.094L395.942 150.675L395.986 166.957L383.284 156.77L370.582 166.957L370.626 150.675L354.743 147.094L367.499 136.978L360.396 122.327L376.259 125.994L383.284 111.304Z" fill="#F0F0F0"></path>
      <path d="M440.368 178.087L447.392 192.777L463.256 189.109L456.152 203.76L468.909 213.877L453.025 217.458L453.069 233.739L440.368 223.553L427.666 233.739L427.709 217.458L411.826 213.877L424.583 203.76L417.479 189.109L433.342 192.777L440.368 178.087Z" fill="#F0F0F0"></path>
      <path d="M399.55 256L405.075 273.006H422.957L408.49 283.517L414.017 300.522L399.55 290.012L385.084 300.522L390.609 283.517L376.143 273.006H394.024L399.55 256Z" fill="#F0F0F0"></path>
    </g>
    <defs>
      <clipPath id="clip0_2_4144">
        <rect width="512" height="512" fill="white"></rect>
      </clipPath>
    </defs>
  </symbol>
  <symbol fill="none" xmlns="http://www.w3.org/2000/svg" viewBox="0 0 512 512" id="BY">
    <g clip-path="url(#clip0_2_4226)">
      <path d="M256 512C397.385 512 512 397.385 512 256C512 114.615 397.385 0 256 0C114.615 0 0 114.615 0 256C0 397.385 114.615 512 256 512Z" fill="#FCFCFC"></path>
      <path d="M105.739 237.449L77.9131 186.966L105.739 137.275L133.565 186.966L105.739 237.449Z" fill="#A2001D"></path>
      <path d="M50.0872 237.449L22.2612 186.966L50.0872 137.275L77.9132 186.966L50.0872 237.449Z" fill="#A2001D"></path>
      <path d="M105.739 374.725L77.9131 324.242L105.739 274.551L133.565 324.242L105.739 374.725Z" fill="#A2001D"></path>
      <path d="M50.0872 374.725L22.2612 324.242L50.0872 274.551L77.9132 324.242L50.0872 374.725Z" fill="#A2001D"></path>
      <path d="M133.565 49.692L125.687 35.624C111.557 43.996 98.3043 53.689 86.0933 64.533L105.739 100.174L133.565 49.692Z" fill="#A2001D"></path>
      <path d="M105.739 411.826L85.8853 447.282C98.0853 458.14 111.329 467.848 125.453 476.237L133.566 461.518L105.739 411.826Z" fill="#A2001D"></path>
      <path d="M155.826 322.783V491.646C186.595 504.743 220.448 512 256 512C366.071 512 459.906 442.528 496.077 345.043L155.826 322.783Z" fill="#6DA544"></path>
      <path d="M496.077 345.043C506.368 317.31 512 287.314 512 256C512 114.616 397.384 0 256 0C220.451 0 186.595 7.253 155.826 20.348V345.044H496.077V345.043Z" fill="#A2001D"></path>
    </g>
    <defs>
      <clipPath id="clip0_2_4226">
        <rect width="512" height="512" fill="white"></rect>
      </clipPath>
    </defs>
  </symbol>
  <symbol fill="none" xmlns="http://www.w3.org/2000/svg" viewBox="0 0 512 512" id="CA">
    <g clip-path="url(#clip0_2_4430)">
      <path d="M256 512C397.385 512 512 397.385 512 256C512 114.615 397.385 0 256 0C114.615 0 0 114.615 0 256C0 397.385 114.615 512 256 512Z" fill="#F0F0F0"></path>
      <path d="M512 256C512 154.506 452.935 66.81 367.304 25.402V486.597C452.935 445.19 512 357.494 512 256Z" fill="#D80027"></path>
      <path d="M0 256C0 357.494 59.065 445.19 144.696 486.598V25.402C59.065 66.81 0 154.506 0 256Z" fill="#D80027"></path>
      <path d="M300.522 289.391L345.043 267.13L322.783 256V233.739L278.261 256L300.522 211.478H278.261L256 178.087L233.739 211.478H211.478L233.739 256L189.217 233.739V256L166.957 267.13L211.478 289.391L200.348 311.652H244.87V345.043H267.13V311.652H311.652L300.522 289.391Z" fill="#D80027"></path>
    </g>
    <defs>
      <clipPath id="clip0_2_4430">
        <rect width="512" height="512" fill="white"></rect>
      </clipPath>
    </defs>
  </symbol>
  <symbol fill="none" xmlns="http://www.w3.org/2000/svg" viewBox="0 0 512 512" id="CY">
    <g clip-path="url(#clip0_2_4629)">
      <path d="M256 512C397.385 512 512 397.385 512 256C512 114.615 397.385 0 256 0C114.615 0 0 114.615 0 256C0 397.385 114.615 512 256 512Z" fill="#FCFCFC"></path>
      <path d="M400.696 222.609C392.905 222.609 383.258 222.609 367.305 222.609C367.305 284.081 317.471 333.913 256.001 333.913C194.528 333.913 144.697 284.081 144.697 222.609C133.937 222.609 122.064 222.609 111.306 222.609C111.306 288.824 155.782 344.651 216.492 361.844C209.836 374.488 210.85 390.407 220.358 402.272C232.846 392.263 245.775 381.902 256.743 373.114C267.711 381.903 280.641 392.264 293.128 402.272C302.73 390.289 303.675 374.168 296.798 361.463C356.843 343.848 400.696 288.353 400.696 222.609Z" fill="#6DA544"></path>
      <path d="M166.957 211.478C166.957 211.478 166.957 267.13 222.609 267.13L233.739 278.26H256C256 278.26 267.13 244.869 289.391 244.869C289.391 244.869 289.391 222.608 311.652 222.608C333.913 222.608 345.043 222.608 345.043 222.608C345.043 222.608 333.913 178.086 389.565 144.695L367.304 133.565C367.304 133.565 289.391 189.217 233.739 178.087V200.348H211.478L200.348 189.218L166.957 211.478Z" fill="#FFDA44"></path>
    </g>
    <defs>
      <clipPath id="clip0_2_4629">
        <rect width="512" height="512" fill="white"></rect>
      </clipPath>
    </defs>
  </symbol>
  <symbol fill="none" xmlns="http://www.w3.org/2000/svg" viewBox="0 0 512 512" id="DE">
    <g clip-path="url(#clip0_2_4830)">
      <path d="M15.9229 345.043C52.0939 442.527 145.929 512 256 512C366.071 512 459.906 442.527 496.077 345.043L256 322.783L15.9229 345.043Z" fill="#FFDA44"></path>
      <path d="M256 0C145.929 0 52.0939 69.472 15.9229 166.957L256 189.217L496.077 166.956C459.906 69.472 366.071 0 256 0Z" fill="black"></path>
      <path d="M15.923 166.957C5.633 194.69 0 224.686 0 256C0 287.314 5.633 317.31 15.923 345.043H496.078C506.368 317.31 512 287.314 512 256C512 224.686 506.368 194.69 496.077 166.957H15.923Z" fill="#D80027"></path>
    </g>
    <defs>
      <clipPath id="clip0_2_4830">
        <rect width="512" height="512" fill="white"></rect>
      </clipPath>
    </defs>
  </symbol>
  <symbol fill="none" xmlns="http://www.w3.org/2000/svg" viewBox="0 0 512 512" id="ES">
    <g clip-path="url(#clip0_2_5784)">
      <path d="M0.000976562 256C0.000976562 287.314 5.63398 317.31 15.924 345.043L256.001 367.304L496.078 345.043C506.368 317.31 512.001 287.314 512.001 256C512.001 224.686 506.368 194.69 496.078 166.957L256.001 144.696L15.924 166.957C5.63398 194.69 0.000976563 224.686 0.000976563 256H0.000976562Z" fill="#FFDA44"></path>
      <path d="M496.078 166.957C459.907 69.473 366.072 0 256.001 0C145.93 0 52.095 69.473 15.924 166.957H496.078Z" fill="#D80027"></path>
      <path d="M15.924 345.043C52.095 442.527 145.93 512 256.001 512C366.072 512 459.907 442.527 496.078 345.043H15.924Z" fill="#D80027"></path>
    </g>
    <defs>
      <clipPath id="clip0_2_5784">
        <rect width="512" height="512" fill="white" transform="translate(0.000976562)"></rect>
      </clipPath>
    </defs>
  </symbol>
  <symbol fill="none" xmlns="http://www.w3.org/2000/svg" viewBox="0 0 512 512" id="FR">
    <g clip-path="url(#clip0_2_4794)">
      <path d="M256 512C397.385 512 512 397.385 512 256C512 114.615 397.385 0 256 0C114.615 0 0 114.615 0 256C0 397.385 114.615 512 256 512Z" fill="#F0F0F0"></path>
      <path d="M512 256C512 145.929 442.528 52.0939 345.043 15.9229V496.078C442.528 459.906 512 366.071 512 256Z" fill="#D80027"></path>
      <path d="M0 256C0 366.071 69.473 459.906 166.957 496.077V15.9229C69.473 52.0939 0 145.929 0 256Z" fill="#0052B4"></path>
    </g>
    <defs>
      <clipPath id="clip0_2_4794">
        <rect width="512" height="512" fill="white"></rect>
      </clipPath>
    </defs>
  </symbol>
  <symbol fill="none" xmlns="http://www.w3.org/2000/svg" viewBox="0 0 512 512" id="GB">
    <g clip-path="url(#clip0_2_6031)">
      <path d="M256 512C397.385 512 512 397.385 512 256C512 114.615 397.385 0 256 0C114.615 0 0 114.615 0 256C0 397.385 114.615 512 256 512Z" fill="#F0F0F0"></path>
      <path d="M52.92 100.143C32.811 126.306 17.648 156.461 8.81897 189.22H141.997L52.92 100.143Z" fill="#0052B4"></path>
      <path d="M503.181 189.22C494.352 156.462 479.188 126.307 459.08 100.144L370.005 189.22H503.181Z" fill="#0052B4"></path>
      <path d="M8.81897 322.784C17.649 355.542 32.812 385.697 52.92 411.859L141.994 322.784H8.81897Z" fill="#0052B4"></path>
      <path d="M411.858 52.9213C385.695 32.8123 355.541 17.6493 322.782 8.81934V141.996L411.858 52.9213Z" fill="#0052B4"></path>
      <path d="M100.142 459.079C126.305 479.188 156.46 494.351 189.218 503.181V370.005L100.142 459.079Z" fill="#0052B4"></path>
      <path d="M189.217 8.81934C156.459 17.6493 126.304 32.8123 100.142 52.9203L189.217 141.995V8.81934Z" fill="#0052B4"></path>
      <path d="M322.783 503.181C355.541 494.351 385.696 479.188 411.858 459.08L322.783 370.005V503.181Z" fill="#0052B4"></path>
      <path d="M370.005 322.784L459.08 411.86C479.188 385.698 494.352 355.542 503.181 322.784H370.005Z" fill="#0052B4"></path>
      <path d="M509.833 222.609H289.393H289.392V2.167C278.461 0.744 267.317 0 256 0C244.681 0 233.539 0.744 222.609 2.167V222.607V222.608H2.167C0.744 233.539 0 244.683 0 256C0 267.319 0.744 278.461 2.167 289.391H222.607H222.608V509.833C233.539 511.256 244.681 512 256 512C267.317 512 278.461 511.257 289.391 509.833V289.393V289.392H509.833C511.256 278.461 512 267.319 512 256C512 244.683 511.256 233.539 509.833 222.609Z" fill="#D80027"></path>
      <path d="M322.783 322.784L437.019 437.02C442.273 431.768 447.285 426.277 452.067 420.585L354.265 322.783H322.783V322.784Z" fill="#D80027"></path>
      <path d="M189.217 322.784H189.215L74.98 437.019C80.232 442.273 85.723 447.285 91.415 452.067L189.217 354.263V322.784Z" fill="#D80027"></path>
      <path d="M189.217 189.219V189.217L74.981 74.9805C69.727 80.2325 64.715 85.7235 59.933 91.4155L157.736 189.218H189.217V189.219Z" fill="#D80027"></path>
      <path d="M322.783 189.219L437.02 74.9806C431.768 69.7266 426.277 64.7146 420.585 59.9336L322.783 157.737V189.219Z" fill="#D80027"></path>
    </g>
    <defs>
      <clipPath id="clip0_2_6031">
        <rect width="512" height="512" fill="white"></rect>
      </clipPath>
    </defs>
  </symbol>
  <symbol fill="none" xmlns="http://www.w3.org/2000/svg" viewBox="0 0 512 512" id="HK">
    <g clip-path="url(#clip0_2_4948)">
      <path d="M256 512C397.385 512 512 397.385 512 256C512 114.615 397.385 0 256 0C114.615 0 0 114.615 0 256C0 397.385 114.615 512 256 512Z" fill="#D80027"></path>
      <path d="M282.429 193.668C276.611 217.867 266.274 213.252 261.201 234.356C231.318 227.171 212.915 197.121 220.1 167.236C227.282 137.353 257.334 118.949 287.218 126.134C277.071 168.341 287.634 172.025 282.429 193.668Z" fill="#F0F0F0"></path>
      <path d="M204.887 211.6C226.104 224.61 218.52 233.017 237.022 244.364C220.954 270.565 186.689 278.78 160.487 262.713C134.286 246.646 126.069 212.379 142.137 186.178C179.143 208.87 185.908 199.963 204.887 211.6Z" fill="#F0F0F0"></path>
      <path d="M197.978 290.892C216.909 274.734 222.558 284.544 239.067 270.454C259.022 293.831 256.246 328.959 232.87 348.914C209.492 368.869 174.364 366.09 154.412 342.715C187.426 314.532 181.045 305.343 197.978 290.892Z" fill="#F0F0F0"></path>
      <path d="M271.254 321.965C261.734 298.968 272.81 296.624 264.511 276.571C292.91 264.818 325.462 278.312 337.216 306.711C348.969 335.11 335.473 367.661 307.074 379.415C290.477 339.306 279.768 342.535 271.254 321.965Z" fill="#F0F0F0"></path>
      <path d="M323.45 261.877C298.637 263.824 299.828 252.563 278.193 254.262C275.79 223.623 298.684 196.831 329.325 194.426C359.965 192.027 386.755 214.92 389.157 245.562C345.88 248.955 345.641 260.138 323.45 261.877Z" fill="#F0F0F0"></path>
    </g>
    <defs>
      <clipPath id="clip0_2_4948">
        <rect width="512" height="512" fill="white"></rect>
      </clipPath>
    </defs>
  </symbol>
  <symbol fill="none" xmlns="http://www.w3.org/2000/svg" viewBox="0 0 512 512" id="IL">
    <g clip-path="url(#clip0_2_4998)">
      <path d="M256 512C397.385 512 512 397.385 512 256C512 114.615 397.385 0 256 0C114.615 0 0 114.615 0 256C0 397.385 114.615 512 256 512Z" fill="#F0F0F0"></path>
      <path d="M352.393 200.348H288.13L256 144.696L223.871 200.348H159.607L191.741 256L159.607 311.652H223.871L256 367.304L288.13 311.652H352.393L320.259 256L352.393 200.348ZM295.475 256L275.739 290.188H236.264L216.525 256L236.263 221.812H275.738L295.475 256ZM256 187.623L263.346 200.347H248.656L256 187.623ZM196.786 221.812H211.478L204.132 234.536L196.786 221.812ZM196.786 290.188L204.133 277.464L211.479 290.188H196.786ZM256 324.376L248.655 311.652H263.346L256 324.376ZM315.214 290.188H300.522L307.869 277.464L315.214 290.188ZM300.522 221.812H315.214L307.868 234.536L300.522 221.812Z" fill="#0052B4"></path>
      <path d="M415.357 55.6523H96.6432C73.2802 74.2603 53.2442 96.8623 37.5742 122.435H474.426C458.755 96.8633 438.719 74.2603 415.357 55.6523Z" fill="#0052B4"></path>
      <path d="M96.6432 456.348H415.356C438.719 437.74 458.755 415.138 474.425 389.565H37.5742C53.2452 415.137 73.2812 437.74 96.6432 456.348Z" fill="#0052B4"></path>
    </g>
    <defs>
      <clipPath id="clip0_2_4998">
        <rect width="512" height="512" fill="white"></rect>
      </clipPath>
    </defs>
  </symbol>
  <symbol fill="none" xmlns="http://www.w3.org/2000/svg" viewBox="0 0 512 512" id="IN">
    <g clip-path="url(#clip0_2_4968)">
      <path d="M256 512C397.385 512 512 397.385 512 256C512 114.615 397.385 0 256 0C114.615 0 0 114.615 0 256C0 397.385 114.615 512 256 512Z" fill="#F0F0F0"></path>
      <path d="M256 0C154.506 0 66.8099 59.065 25.4019 144.696H486.597C445.19 59.065 357.493 0 256 0Z" fill="#FF9811"></path>
      <path d="M256 512C357.493 512 445.19 452.935 486.598 367.304H25.4019C66.8099 452.935 154.506 512 256 512Z" fill="#6DA544"></path>
      <path d="M256 345.043C305.177 345.043 345.043 305.177 345.043 256C345.043 206.823 305.177 166.957 256 166.957C206.823 166.957 166.957 206.823 166.957 256C166.957 305.177 206.823 345.043 256 345.043Z" fill="#0052B4"></path>
      <path d="M256 311.652C286.736 311.652 311.652 286.736 311.652 256C311.652 225.264 286.736 200.348 256 200.348C225.264 200.348 200.348 225.264 200.348 256C200.348 286.736 225.264 311.652 256 311.652Z" fill="#F0F0F0"></path>
      <path d="M256 187.326L273.169 226.264L315.473 221.663L290.337 256L315.473 290.337L273.169 285.736L256 324.674L238.831 285.736L196.527 290.336L221.663 256L196.527 221.663L238.831 226.264L256 187.326Z" fill="#0052B4"></path>
    </g>
    <defs>
      <clipPath id="clip0_2_4968">
        <rect width="512" height="512" fill="white"></rect>
      </clipPath>
    </defs>
  </symbol>
  <symbol fill="none" xmlns="http://www.w3.org/2000/svg" viewBox="0 0 512 512" id="IT">
    <g clip-path="url(#clip0_2_5004)">
      <path d="M256 512C397.385 512 512 397.385 512 256C512 114.615 397.385 0 256 0C114.615 0 0 114.615 0 256C0 397.385 114.615 512 256 512Z" fill="#F0F0F0"></path>
      <path d="M512 256C512 145.929 442.528 52.0939 345.043 15.9229V496.078C442.528 459.906 512 366.071 512 256Z" fill="#D80027"></path>
      <path d="M0 256C0 366.071 69.472 459.906 166.957 496.077V15.9229C69.472 52.0939 0 145.929 0 256Z" fill="#6DA544"></path>
    </g>
    <defs>
      <clipPath id="clip0_2_5004">
        <rect width="512" height="512" fill="white"></rect>
      </clipPath>
    </defs>
  </symbol>
  <symbol fill="none" xmlns="http://www.w3.org/2000/svg" viewBox="0 0 512 512" id="KZ">
    <g clip-path="url(#clip0_2_5032)">
      <path d="M256 512C397.385 512 512 397.385 512 256C512 114.615 397.385 0 256 0C114.615 0 0 114.615 0 256C0 397.385 114.615 512 256 512Z" fill="#338AF3"></path>
      <path d="M400.696 258.783H111.304C111.304 278.762 128.705 294.957 148.682 294.957H147.478C147.478 314.936 163.673 331.131 183.652 331.131C183.652 351.11 199.847 367.305 219.826 367.305H292.174C312.153 367.305 328.348 351.11 328.348 331.131C348.327 331.131 364.522 314.936 364.522 294.957H363.318C383.293 294.957 400.696 278.762 400.696 258.783Z" fill="#FFDA44"></path>
      <path d="M356.174 211.478C356.174 266.802 311.324 311.652 256 311.652C200.675 311.652 155.826 266.802 155.826 211.478" fill="#338AF3"></path>
      <path d="M332.515 211.478L301.25 226.185L317.899 256.465L283.949 249.97L279.647 284.266L256 259.041L232.352 284.266L228.051 249.97L194.101 256.463L210.749 226.184L179.485 211.478L210.75 196.772L194.101 166.493L228.05 172.987L232.353 138.691L256 163.916L279.648 138.691L283.949 172.987L317.9 166.493L301.251 196.773L332.515 211.478Z" fill="#FFDA44"></path>
    </g>
    <defs>
      <clipPath id="clip0_2_5032">
        <rect width="512" height="512" fill="white"></rect>
      </clipPath>
    </defs>
  </symbol>
  <symbol fill="none" xmlns="http://www.w3.org/2000/svg" viewBox="0 0 512 512" id="NL">
    <g clip-path="url(#clip0_2_5350)">
      <path d="M256 512C397.385 512 512 397.385 512 256C512 114.615 397.385 0 256 0C114.615 0 0 114.615 0 256C0 397.385 114.615 512 256 512Z" fill="#F0F0F0"></path>
      <path d="M256 0C145.929 0 52.0941 69.472 15.9231 166.957H496.078C459.906 69.472 366.071 0 256 0Z" fill="#A2001D"></path>
      <path d="M256 512C366.071 512 459.906 442.528 496.077 345.043H15.9231C52.0941 442.528 145.929 512 256 512Z" fill="#0052B4"></path>
    </g>
    <defs>
      <clipPath id="clip0_2_5350">
        <rect width="512" height="512" fill="white"></rect>
      </clipPath>
    </defs>
  </symbol>
  <symbol fill="none" xmlns="http://www.w3.org/2000/svg" viewBox="0 0 512 512" id="RU">
    <g clip-path="url(#clip0_2_5568)">
      <path d="M256.001 512C397.386 512 512.001 397.385 512.001 256C512.001 114.615 397.386 0 256.001 0C114.616 0 0.000976562 114.615 0.000976562 256C0.000976562 397.385 114.616 512 256.001 512Z" fill="#F0F0F0"></path>
      <path d="M496.078 345.043C506.369 317.31 512.001 287.314 512.001 256C512.001 224.686 506.369 194.69 496.078 166.957H15.924C5.63398 194.69 0.000976562 224.686 0.000976562 256C0.000976562 287.314 5.63398 317.31 15.924 345.043L256.001 367.304L496.078 345.043Z" fill="#0052B4"></path>
      <path d="M256.001 512C366.072 512 459.907 442.528 496.078 345.043H15.9238C52.0948 442.528 145.93 512 256.001 512Z" fill="#D80027"></path>
    </g>
    <defs>
      <clipPath id="clip0_2_5568">
        <rect width="512" height="512" fill="white" transform="translate(0.000976562)"></rect>
      </clipPath>
    </defs>
  </symbol>
  <symbol fill="none" xmlns="http://www.w3.org/2000/svg" viewBox="0 0 512 512" id="SE">
    <g clip-path="url(#clip0_2_5845)">
      <path d="M256.001 512C397.386 512 512.001 397.385 512.001 256C512.001 114.615 397.386 0 256.001 0C114.616 0 0.000976562 114.615 0.000976562 256C0.000976562 397.385 114.616 512 256.001 512Z" fill="#FFDA44"></path>
      <path d="M200.35 222.609H509.834C493.471 97.002 386.068 0 256.001 0C236.887 0 218.268 2.113 200.349 6.085V222.609H200.35Z" fill="#0052B4"></path>
      <path d="M133.566 222.608V31.127C63.272 69.481 12.951 139.832 2.16797 222.609H133.566V222.608Z" fill="#0052B4"></path>
      <path d="M133.565 289.391H2.16797C12.951 372.168 63.272 442.519 133.566 480.872L133.565 289.391Z" fill="#0052B4"></path>
      <path d="M200.349 289.392V505.915C218.268 509.887 236.887 512 256.001 512C386.068 512 493.471 414.998 509.834 289.391H200.349V289.392Z" fill="#0052B4"></path>
    </g>
    <defs>
      <clipPath id="clip0_2_5845">
        <rect width="512" height="512" fill="white" transform="translate(0.000976562)"></rect>
      </clipPath>
    </defs>
  </symbol>
  <symbol fill="none" xmlns="http://www.w3.org/2000/svg" viewBox="0 0 512 512" id="SG">
    <g clip-path="url(#clip0_2_5676)">
      <path d="M256 512C397.385 512 512 397.385 512 256C512 114.615 397.385 0 256 0C114.615 0 0 114.615 0 256C0 397.385 114.615 512 256 512Z" fill="#F0F0F0"></path>
      <path d="M0 256.001C0 114.616 114.616 0 256 0C397.384 0 512 114.616 512 256.001" fill="#D80027"></path>
      <path d="M155.826 133.564C155.826 96.2659 182.039 65.1079 217.043 57.4629C211.663 56.2889 206.082 55.6519 200.347 55.6519C157.316 55.6519 122.434 90.5339 122.434 133.565C122.434 176.596 157.316 211.478 200.347 211.478C206.08 211.478 211.662 210.841 217.043 209.666C182.039 202.021 155.826 170.863 155.826 133.564Z" fill="#F0F0F0"></path>
      <path d="M256 61.2168L261.526 78.2218H279.407L264.94 88.7328L270.466 105.738L256 95.2288L241.534 105.738L247.06 88.7328L232.594 78.2218H250.474L256 61.2168Z" fill="#F0F0F0"></path>
      <path d="M212.625 94.6079L218.15 111.614H236.031L221.565 122.124L227.091 139.129L212.625 128.62L198.157 139.129L203.684 122.124L189.217 111.614H207.098L212.625 94.6079Z" fill="#F0F0F0"></path>
      <path d="M299.376 94.6079L304.903 111.614H322.783L308.316 122.124L313.843 139.129L299.376 128.62L284.91 139.129L290.436 122.124L275.97 111.614H293.85L299.376 94.6079Z" fill="#F0F0F0"></path>
      <path d="M282.681 144.695L288.207 161.701H306.087L291.621 172.211L297.147 189.216L282.681 178.707L268.215 189.216L273.741 172.211L259.275 161.701H277.154L282.681 144.695Z" fill="#F0F0F0"></path>
      <path d="M229.32 144.695L234.845 161.701H252.727L238.26 172.211L243.787 189.216L229.32 178.707L214.853 189.216L220.379 172.211L205.913 161.701H223.794L229.32 144.695Z" fill="#F0F0F0"></path>
    </g>
    <defs>
      <clipPath id="clip0_2_5676">
        <rect width="512" height="512" fill="white"></rect>
      </clipPath>
    </defs>
  </symbol>
  <symbol fill="none" xmlns="http://www.w3.org/2000/svg" viewBox="0 0 512 512" id="US">
    <g clip-path="url(#clip0_2_6053)">
      <path d="M256 512C397.385 512 512 397.385 512 256C512 114.615 397.385 0 256 0C114.615 0 0 114.615 0 256C0 397.385 114.615 512 256 512Z" fill="#F0F0F0"></path>
      <path d="M244.87 256.001H512C512 232.895 508.92 210.511 503.181 189.218H244.87V256.001Z" fill="#D80027"></path>
      <path d="M244.87 122.435H474.426C458.755 96.8633 438.718 74.2603 415.356 55.6523H244.87V122.435Z" fill="#D80027"></path>
      <path d="M256 512.001C316.249 512.001 371.626 491.177 415.356 456.349H96.644C140.374 491.177 195.751 512.001 256 512.001Z" fill="#D80027"></path>
      <path d="M37.5738 389.565H474.426C487.007 369.036 496.764 346.596 503.181 322.782H8.81885C15.2358 346.596 24.9928 369.036 37.5738 389.565Z" fill="#D80027"></path>
      <path d="M118.584 39.978H141.913L120.213 55.743L128.502 81.252L106.803 65.487L85.104 81.252L92.264 59.215C73.158 75.13 56.412 93.776 42.612 114.552H50.087L36.274 124.587C34.122 128.177 32.058 131.824 30.08 135.525L36.676 155.826L24.37 146.885C21.311 153.366 18.513 159.993 15.998 166.758L23.265 189.126H50.087L28.387 204.891L36.676 230.4L14.977 214.635L1.979 224.079C0.678 234.537 0 245.189 0 256H256C256 114.616 256 97.948 256 0C205.428 0 158.285 14.67 118.584 39.978ZM128.502 230.4L106.803 214.635L85.104 230.4L93.393 204.891L71.693 189.126H98.515L106.803 163.617L115.091 189.126H141.913L120.213 204.891L128.502 230.4ZM120.213 130.317L128.502 155.826L106.803 140.061L85.104 155.826L93.393 130.317L71.693 114.552H98.515L106.803 89.043L115.091 114.552H141.913L120.213 130.317ZM220.328 230.4L198.629 214.635L176.93 230.4L185.219 204.891L163.519 189.126H190.341L198.629 163.617L206.917 189.126H233.739L212.039 204.891L220.328 230.4ZM212.039 130.317L220.328 155.826L198.629 140.061L176.93 155.826L185.219 130.317L163.519 114.552H190.341L198.629 89.043L206.917 114.552H233.739L212.039 130.317ZM212.039 55.743L220.328 81.252L198.629 65.487L176.93 81.252L185.219 55.743L163.519 39.978H190.341L198.629 14.469L206.917 39.978H233.739L212.039 55.743Z" fill="#0052B4"></path>
    </g>
    <defs>
      <clipPath id="clip0_2_6053">
        <rect width="512" height="512" fill="white"></rect>
      </clipPath>
    </defs>
  </symbol>
  <symbol fill="none" xmlns="http://www.w3.org/2000/svg" viewBox="0 0 512 512" id="PL">
    <g clip-path="url(#clip0_2_5524)">
      <path d="M256 512C397.385 512 512 397.385 512 256C512 114.615 397.385 0 256 0C114.615 0 0 114.615 0 256C0 397.385 114.615 512 256 512Z" fill="#F0F0F0"></path>
      <path d="M512 256C512 397.384 397.384 512 256 512C114.616 512 0 397.384 0 256" fill="#D80027"></path>
    </g>
    <defs>
      <clipPath id="clip0_2_5524">
        <rect width="512" height="512" fill="white"></rect>
      </clipPath>
    </defs>
  </symbol>
  <symbol fill="none" xmlns="http://www.w3.org/2000/svg" viewBox="0 0 512 512" id="TR">
    <g clip-path="url(#clip0_2_5946)">
      <path d="M256 512C397.385 512 512 397.385 512 256C512 114.615 397.385 0 256 0C114.615 0 0 114.615 0 256C0 397.385 114.615 512 256 512Z" fill="#D80027"></path>
      <path d="M245.518 209.187L266.523 238.132L300.54 227.102L279.502 256.022L300.504 284.966L266.499 273.894L245.462 302.814L245.484 267.053L211.478 255.981L245.496 244.951L245.518 209.187Z" fill="#F0F0F0"></path>
      <path d="M188.194 328.348C148.238 328.348 115.846 295.956 115.846 256C115.846 216.044 148.238 183.652 188.194 183.652C200.652 183.652 212.374 186.803 222.608 192.348C206.553 176.646 184.596 166.956 160.368 166.956C111.19 166.956 71.3252 206.822 71.3252 255.999C71.3252 305.176 111.191 345.042 160.368 345.042C184.598 345.042 206.554 335.351 222.608 319.65C212.374 325.197 200.652 328.348 188.194 328.348Z" fill="#F0F0F0"></path>
    </g>
    <defs>
      <clipPath id="clip0_2_5946">
        <rect width="512" height="512" fill="white"></rect>
      </clipPath>
    </defs>
  </symbol>
  <symbol fill="none" xmlns="http://www.w3.org/2000/svg" viewBox="0 0 512 512" id="FI">
    <g clip-path="url(#clip0_2_4791)">
      <path d="M256 512C397.385 512 512 397.385 512 256C512 114.615 397.385 0 256 0C114.615 0 0 114.615 0 256C0 397.385 114.615 512 256 512Z" fill="#F0F0F0"></path>
      <path d="M509.833 222.609H200.349H200.348V6.08496C176.69 11.331 154.261 19.834 133.565 31.127V222.607V222.608H2.167C0.742 233.539 0 244.683 0 256C0 267.317 0.742 278.461 2.167 289.391H133.564H133.565V480.872C154.261 492.164 176.69 500.669 200.348 505.914V289.394V289.392H509.833C511.256 278.461 512 267.317 512 256C512 244.683 511.256 233.539 509.833 222.609Z" fill="#0052B4"></path>
    </g>
    <defs>
      <clipPath id="clip0_2_4791">
        <rect width="512" height="512" fill="white"></rect>
      </clipPath>
    </defs>
  </symbol>
  <symbol fill="none" xmlns="http://www.w3.org/2000/svg" viewBox="0 0 512 512" id="RS">
    <g clip-path="url(#clip0_2_5656)">
      <path d="M256 512C397.385 512 512 397.385 512 256C512 114.615 397.385 0 256 0C114.615 0 0 114.615 0 256C0 397.385 114.615 512 256 512Z" fill="#F0F0F0"></path>
      <path d="M256 0C114.616 0 0 114.616 0 256C0 287.314 5.633 317.311 15.923 345.043H496.078C506.368 317.311 512 287.314 512 256C512 114.616 397.384 0 256 0Z" fill="#0052B4"></path>
      <path d="M256 0C145.929 0 52.094 69.472 15.923 166.957H496.078C459.906 69.472 366.071 0 256 0Z" fill="#D80027"></path>
      <path d="M66.198 144.696V272.402C66.198 345.046 161.099 367.305 161.099 367.305C161.099 367.305 255.999 345.046 255.999 272.402V144.696H66.198Z" fill="#D80027"></path>
      <path d="M105.446 166.957H216.751V122.435L194.49 133.565L161.099 100.174L127.707 133.565L105.446 122.435V166.957Z" fill="#FFDA44"></path>
      <path d="M233.739 290.183L161.391 217.835L89.043 290.183L112.654 313.794L161.391 265.057L210.128 313.794L233.739 290.183Z" fill="#FFDA44"></path>
      <path d="M233.739 222.609H199.983C201.881 219.333 202.985 215.539 202.985 211.481C202.985 199.185 193.018 189.22 180.724 189.22C172.229 189.22 164.852 193.978 161.099 200.973C157.346 193.979 149.969 189.22 141.474 189.22C129.18 189.22 119.213 199.185 119.213 211.481C119.213 215.539 120.317 219.334 122.215 222.609H89.043C89.043 234.904 99.752 244.87 112.045 244.87H111.304C111.304 257.165 121.27 267.131 133.565 267.131C133.565 278.017 141.383 287.061 151.708 288.997L134.168 328.599C142.574 332.016 151.76 333.914 161.392 333.914C171.024 333.914 180.21 332.016 188.616 328.599L171.076 288.997C181.401 287.063 189.219 278.018 189.219 267.131C201.514 267.131 211.48 257.165 211.48 244.87H210.739C223.031 244.87 233.739 234.903 233.739 222.609Z" fill="#F0F0F0"></path>
    </g>
    <defs>
      <clipPath id="clip0_2_5656">
        <rect width="512" height="512" fill="white"></rect>
      </clipPath>
    </defs>
  </symbol>
  <symbol fill="none" xmlns="http://www.w3.org/2000/svg" viewBox="0 0 512 512" id="BR">
    <g clip-path="url(#clip0_2_4298)">
      <path d="M256 512C397.385 512 512 397.385 512 256C512 114.615 397.385 0 256 0C114.615 0 0 114.615 0 256C0 397.385 114.615 512 256 512Z" fill="#6DA544"></path>
      <path d="M256 100.174L467.478 256L256 411.826L44.522 256L256 100.174Z" fill="#FFDA44"></path>
      <path d="M256 345.043C305.177 345.043 345.043 305.177 345.043 256C345.043 206.823 305.177 166.957 256 166.957C206.823 166.957 166.957 206.823 166.957 256C166.957 305.177 206.823 345.043 256 345.043Z" fill="#F0F0F0"></path>
      <path d="M211.478 250.435C195.994 250.435 181.051 252.79 166.985 257.16C167.608 305.8 207.212 345.044 256 345.044C286.168 345.044 312.812 330.027 328.919 307.076C301.362 272.579 258.961 250.435 211.478 250.435Z" fill="#0052B4"></path>
      <path d="M343.393 273.06C344.465 267.536 345.044 261.837 345.044 256C345.044 206.822 305.178 166.957 256.001 166.957C219.307 166.957 187.807 189.158 174.175 220.856C186.225 218.359 198.701 217.044 211.48 217.044C263.197 217.043 309.983 238.541 343.393 273.06Z" fill="#0052B4"></path>
    </g>
    <defs>
      <clipPath id="clip0_2_4298">
        <rect width="512" height="512" fill="white"></rect>
      </clipPath>
    </defs>
  </symbol>
  <symbol fill="none" xmlns="http://www.w3.org/2000/svg" viewBox="0 0 512 512" id="JP">
    <g clip-path="url(#clip0_2_5018)">
      <path d="M256 512C397.385 512 512 397.385 512 256C512 114.615 397.385 0 256 0C114.615 0 0 114.615 0 256C0 397.385 114.615 512 256 512Z" fill="#F0F0F0"></path>
      <path d="M256 367.304C317.472 367.304 367.304 317.472 367.304 256C367.304 194.529 317.472 144.696 256 144.696C194.529 144.696 144.696 194.529 144.696 256C144.696 317.472 194.529 367.304 256 367.304Z" fill="#D80027"></path>
    </g>
    <defs>
      <clipPath id="clip0_2_5018">
        <rect width="512" height="512" fill="white"></rect>
      </clipPath>
    </defs>
  </symbol>
  <symbol xmlns="http://www.w3.org/2000/svg" xmlns:xlink="http://www.w3.org/1999/xlink" version="1.1" viewBox="0 0 20 20" id="cz">
    <g id="surface1">
      <path d="M 10 20 C 15.523438 20 20 15.523438 20 10 C 20 4.476562 15.523438 0 10 0 C 4.476562 0 0 4.476562 0 10 C 0 15.523438 4.476562 20 10 20 Z M 10 20 "></path>
      <path d="M 9.128906 10 C 9.128906 10 2.933594 17.074219 2.929688 17.070312 C 4.738281 18.878906 7.238281 20 10 20 C 15.523438 20 20 15.523438 20 10 Z M 9.128906 10 "></path>
      <path d="M 2.929688 2.929688 C -0.976562 6.835938 -0.976562 13.164062 2.929688 17.070312 C 4.542969 15.457031 6.09375 13.90625 10 10 Z M 2.929688 2.929688 "></path>
    </g>
  </symbol>
</svg>
