<svg width="34" height="35" viewBox="0 0 34 35" fill="none" xmlns="http://www.w3.org/2000/svg">
<path d="M22.25 17.3801C22.25 18.7725 21.6968 20.1078 20.7123 21.0924C19.7277 22.077 18.3923 22.6301 17 22.6301C15.6076 22.6301 14.2722 22.077 13.2876 21.0924C12.3031 20.1078 11.75 18.7725 11.75 17.3801C11.75 17.0808 11.7815 16.7886 11.8357 16.5051H9.99995V23.4998C9.99995 23.9863 10.3937 24.3801 10.8802 24.3801H23.1215C23.3546 24.3796 23.5781 24.2867 23.7428 24.1216C23.9075 23.9566 24 23.733 24 23.4998V16.5051H22.1642C22.2185 16.7886 22.25 17.0808 22.25 17.3801ZM17 20.8801C17.4597 20.88 17.9149 20.7893 18.3396 20.6133C18.7643 20.4372 19.1502 20.1792 19.4752 19.8541C19.8002 19.5289 20.058 19.1429 20.2338 18.7181C20.4096 18.2933 20.5001 17.8381 20.5 17.3783C20.4998 16.9186 20.4092 16.4634 20.2331 16.0387C20.0571 15.614 19.7991 15.2281 19.474 14.9031C19.1488 14.5781 18.7628 14.3203 18.338 14.1445C17.9132 13.9687 17.4579 13.8782 16.9982 13.8783C16.0697 13.8786 15.1793 14.2476 14.523 14.9043C13.8666 15.561 13.498 16.4516 13.4982 17.3801C13.4984 18.3086 13.8675 19.1989 14.5242 19.8553C15.1809 20.5117 16.0715 20.8803 17 20.8801ZM21.2 13.7051H23.2982C23.4376 13.7051 23.5713 13.6498 23.6701 13.5514C23.7688 13.453 23.8245 13.3195 23.825 13.1801V11.0818C23.825 10.9421 23.7695 10.8081 23.6707 10.7094C23.5719 10.6106 23.4379 10.5551 23.2982 10.5551H21.2C21.0603 10.5551 20.9263 10.6106 20.8275 10.7094C20.7287 10.8081 20.6732 10.9421 20.6732 11.0818V13.1801C20.675 13.4688 20.9112 13.7051 21.2 13.7051ZM17 0.580078C12.5443 0.580078 8.27117 2.35007 5.12056 5.50068C1.96995 8.6513 0.199951 12.9244 0.199951 17.3801C0.199951 21.8357 1.96995 26.1089 5.12056 29.2595C8.27117 32.4101 12.5443 34.1801 17 34.1801C19.2062 34.1801 21.3908 33.7455 23.429 32.9013C25.4673 32.057 27.3193 30.8195 28.8794 29.2595C30.4394 27.6995 31.6769 25.8474 32.5211 23.8092C33.3654 21.7709 33.8 19.5863 33.8 17.3801C33.8 15.1739 33.3654 12.9893 32.5211 10.951C31.6769 8.91273 30.4394 7.06071 28.8794 5.50068C27.3193 3.94066 25.4673 2.70318 23.429 1.8589C21.3908 1.01462 19.2062 0.580078 17 0.580078ZM25.75 24.1858C25.75 25.2551 24.875 26.1301 23.8057 26.1301H10.1942C9.12495 26.1301 8.24995 25.2551 8.24995 24.1858V10.5743C8.24995 9.50508 9.12495 8.63008 10.1942 8.63008H23.8057C24.875 8.63008 25.75 9.50508 25.75 10.5743V24.1858Z" fill="#F53838"/>
</svg>
