<svg width="14" height="14" viewBox="0 0 14 14" fill="none" xmlns="http://www.w3.org/2000/svg">
<path d="M13.189 5.16583L9.22178 4.58926L7.44834 0.993951C7.39991 0.895514 7.32022 0.815826 7.22178 0.767389C6.97491 0.645514 6.67491 0.747076 6.55147 0.993951L4.77803 4.58926L0.810845 5.16583C0.70147 5.18145 0.60147 5.23301 0.524907 5.31114C0.432347 5.40627 0.381343 5.53426 0.383101 5.66699C0.384859 5.79971 0.439235 5.9263 0.534282 6.01895L3.40459 8.81739L2.72647 12.769C2.71057 12.8609 2.72074 12.9554 2.75583 13.0418C2.79093 13.1283 2.84953 13.2032 2.92501 13.258C3.00049 13.3128 3.08982 13.3454 3.18288 13.352C3.27593 13.3586 3.36898 13.3391 3.45147 13.2955L6.99991 11.4299L10.5483 13.2955C10.6452 13.3471 10.7577 13.3643 10.8655 13.3455C11.1374 13.2986 11.3202 13.0408 11.2733 12.769L10.5952 8.81739L13.4655 6.01895C13.5437 5.94239 13.5952 5.84239 13.6108 5.73301C13.653 5.45958 13.4624 5.20645 13.189 5.16583Z" fill="#FEA250"/>
</svg>
