<svg width="25" height="25" viewBox="0 0 25 25" fill="none" xmlns="http://www.w3.org/2000/svg">
<path d="M20.5 3.54883H4.5C3.96957 3.54883 3.46086 3.75954 3.08579 4.13461C2.71071 4.50969 2.5 5.0184 2.5 5.54883V9.54883C2.5 10.0793 2.71071 10.588 3.08579 10.963C3.46086 11.3381 3.96957 11.5488 4.5 11.5488H20.5C21.0304 11.5488 21.5391 11.3381 21.9142 10.963C22.2893 10.588 22.5 10.0793 22.5 9.54883V5.54883C22.5 5.0184 22.2893 4.50969 21.9142 4.13461C21.5391 3.75954 21.0304 3.54883 20.5 3.54883ZM15.5 7.54883C15.5 8.10111 15.0523 8.54883 14.5 8.54883C13.9477 8.54883 13.5 8.10111 13.5 7.54883C13.5 6.99654 13.9477 6.54883 14.5 6.54883C15.0523 6.54883 15.5 6.99654 15.5 7.54883ZM19.5 7.54883C19.5 8.10111 19.0523 8.54883 18.5 8.54883C17.9477 8.54883 17.5 8.10111 17.5 7.54883C17.5 6.99654 17.9477 6.54883 18.5 6.54883C19.0523 6.54883 19.5 6.99654 19.5 7.54883ZM20.5 13.5488H4.5C3.96957 13.5488 3.46086 13.7595 3.08579 14.1346C2.71071 14.5097 2.5 15.0184 2.5 15.5488V19.5488C2.5 20.0793 2.71071 20.588 3.08579 20.963C3.46086 21.3381 3.96957 21.5488 4.5 21.5488H20.5C21.0304 21.5488 21.5391 21.3381 21.9142 20.963C22.2893 20.588 22.5 20.0793 22.5 19.5488V15.5488C22.5 15.0184 22.2893 14.5097 21.9142 14.1346C21.5391 13.7595 21.0304 13.5488 20.5 13.5488ZM15.5 17.5488C15.5 18.1011 15.0523 18.5488 14.5 18.5488C13.9477 18.5488 13.5 18.1011 13.5 17.5488C13.5 16.9965 13.9477 16.5488 14.5 16.5488C15.0523 16.5488 15.5 16.9965 15.5 17.5488ZM19.5 17.5488C19.5 18.1011 19.0523 18.5488 18.5 18.5488C17.9477 18.5488 17.5 18.1011 17.5 17.5488C17.5 16.9965 17.9477 16.5488 18.5 16.5488C19.0523 16.5488 19.5 16.9965 19.5 17.5488Z" fill="#F53838"/>
</svg>
