<svg width="24" height="25" viewBox="0 0 24 25" fill="none" xmlns="http://www.w3.org/2000/svg">
<path d="M19 9.54883C19 8.62957 18.8189 7.71932 18.4672 6.87004C18.1154 6.02077 17.5998 5.24909 16.9497 4.59908C16.2997 3.94907 15.5281 3.43345 14.6788 3.08167C13.8295 2.72989 12.9193 2.54883 12 2.54883C11.0807 2.54883 10.1705 2.72989 9.32122 3.08167C8.47194 3.43345 7.70026 3.94907 7.05025 4.59908C6.40024 5.24909 5.88463 6.02077 5.53284 6.87004C5.18106 7.71932 5 8.62957 5 9.54883C5 10.9358 5.41 12.2258 6.105 13.3138H6.097C8.457 17.0088 12 22.5488 12 22.5488L17.903 13.3138H17.896C18.6164 12.1902 18.9995 10.8836 19 9.54883ZM12 12.5488C11.2044 12.5488 10.4413 12.2328 9.87868 11.6701C9.31607 11.1075 9 10.3445 9 9.54883C9 8.75318 9.31607 7.99012 9.87868 7.42751C10.4413 6.8649 11.2044 6.54883 12 6.54883C12.7956 6.54883 13.5587 6.8649 14.1213 7.42751C14.6839 7.99012 15 8.75318 15 9.54883C15 10.3445 14.6839 11.1075 14.1213 11.6701C13.5587 12.2328 12.7956 12.5488 12 12.5488Z" fill="#F53838"/>
</svg>
