<svg width="25" height="25" viewBox="0 0 25 25" fill="none" xmlns="http://www.w3.org/2000/svg">
<path fill-rule="evenodd" clip-rule="evenodd" d="M12.5001 11.3484C13.4549 11.3484 14.3706 10.9692 15.0457 10.294C15.7208 9.61889 16.1001 8.70322 16.1001 7.74844C16.1001 6.79366 15.7208 5.87798 15.0457 5.20285C14.3706 4.52772 13.4549 4.14844 12.5001 4.14844C11.5453 4.14844 10.6296 4.52772 9.95451 5.20285C9.27938 5.87798 8.9001 6.79366 8.9001 7.74844C8.9001 8.70322 9.27938 9.61889 9.95451 10.294C10.6296 10.9692 11.5453 11.3484 12.5001 11.3484ZM7.39875 22.1484C5.57696 22.1484 4.04234 20.617 4.73951 18.9339C5.16165 17.9148 5.78039 16.9888 6.5604 16.2087C7.34041 15.4287 8.26642 14.81 9.28556 14.3878C10.3047 13.9657 11.397 13.7484 12.5001 13.7484C13.6032 13.7484 14.6955 13.9657 15.7146 14.3878C16.7338 14.81 17.6598 15.4287 18.4398 16.2087C19.2198 16.9888 19.8385 17.9148 20.2607 18.9339C20.9579 20.617 19.4232 22.1484 17.6014 22.1484H7.39875Z" fill="#F53838"/>
</svg>
