<svg width="21" height="21" viewBox="0 0 21 21" fill="none" xmlns="http://www.w3.org/2000/svg">
<path d="M10.1216 0.548828C4.60758 0.548828 0.121582 5.03483 0.121582 10.5488C0.121582 16.0628 4.60758 20.5488 10.1216 20.5488C15.6356 20.5488 20.1216 16.0628 20.1216 10.5488C20.1216 5.03483 15.6356 0.548828 10.1216 0.548828ZM8.12258 14.9618L5.11703 11.9628C4.72628 11.5728 4.72549 10.94 5.11527 10.5491C5.50529 10.158 6.13859 10.1573 6.52951 10.5475L8.12058 12.1358L12.7076 7.54883C13.098 7.15836 13.7311 7.15836 14.1216 7.54883C14.512 7.93929 14.512 8.57236 14.1216 8.96283L8.12258 14.9618Z" fill="#2FAB73"/>
</svg>
