<svg width="35" height="35" viewBox="0 0 35 35" fill="none" xmlns="http://www.w3.org/2000/svg">
<path d="M17.4001 0.580078C8.1216 0.580078 0.600098 8.10158 0.600098 17.3801C0.600098 26.6586 8.1216 34.1801 17.4001 34.1801C26.6786 34.1801 34.2001 26.6586 34.2001 17.3801C34.2001 8.10158 26.6786 0.580078 17.4001 0.580078ZM24.2339 14.3421C24.2409 14.4856 24.2426 14.6291 24.2426 14.7691C24.2426 19.1441 20.9159 24.1858 14.8294 24.1858C13.0309 24.1888 11.2698 23.6723 9.75785 22.6983C10.0151 22.7298 10.2793 22.7421 10.5471 22.7421C12.0976 22.7421 13.5239 22.2153 14.6561 21.3263C13.9661 21.3128 13.2975 21.0843 12.7435 20.6727C12.1896 20.2612 11.7778 19.687 11.5656 19.0303C12.0611 19.1246 12.5716 19.1048 13.0583 18.9726C12.3094 18.8211 11.6359 18.4153 11.1521 17.824C10.6682 17.2326 10.4038 16.4922 10.4036 15.7281V15.6878C10.8498 15.9346 11.3608 16.0851 11.9033 16.1026C11.2012 15.6352 10.7042 14.9173 10.5139 14.0956C10.3236 13.2739 10.4544 12.4105 10.8796 11.6821C11.7108 12.7041 12.7473 13.5401 13.9221 14.1361C15.0969 14.7321 16.3837 15.0747 17.6994 15.1418C17.5321 14.4319 17.6041 13.6865 17.9041 13.0217C18.2042 12.3569 18.7154 11.8098 19.3585 11.4655C20.0015 11.1213 20.7403 10.9991 21.4599 11.118C22.1796 11.2369 22.8397 11.5903 23.3379 12.1231C24.0784 11.9766 24.7886 11.7049 25.4379 11.3198C25.191 12.0866 24.6743 12.7376 23.9836 13.1521C24.6396 13.0731 25.2801 12.8967 25.8841 12.6288C25.4405 13.2936 24.8816 13.8738 24.2339 14.3421Z" fill="#F53838"/>
</svg>
